<mxfile host="app.diagrams.net" modified="2024-06-05T00:31:56.100Z" agent="Mozilla/5.0 (Windows NT 10.0; Win64; x64) AppleWebKit/537.36 (KHTML, like Gecko) Chrome/125.0.0.0 Safari/537.36" etag="iOkcxPYt-JlYkt5cRK6Y" version="24.4.10" type="google">
  <diagram name="Page-1" id="SIr8nm7IsOfHWfWHqLsP">
    <mxGraphModel grid="1" page="1" gridSize="10" guides="1" tooltips="1" connect="1" arrows="1" fold="1" pageScale="1" pageWidth="850" pageHeight="1100" math="0" shadow="0">
      <root>
        <mxCell id="0" />
        <mxCell id="1" parent="0" />
        <mxCell id="lydc4LzYDRhMZ7QRW08D-1" value="Filers" style="rounded=0;whiteSpace=wrap;html=1;" vertex="1" parent="1">
          <mxGeometry x="400" y="40" width="80" height="40" as="geometry" />
        </mxCell>
        <mxCell id="lydc4LzYDRhMZ7QRW08D-4" style="edgeStyle=orthogonalEdgeStyle;rounded=0;orthogonalLoop=1;jettySize=auto;html=1;entryX=0;entryY=0.5;entryDx=0;entryDy=0;endArrow=none;endFill=0;" edge="1" parent="1" source="lydc4LzYDRhMZ7QRW08D-2" target="lydc4LzYDRhMZ7QRW08D-3">
          <mxGeometry relative="1" as="geometry" />
        </mxCell>
        <mxCell id="lydc4LzYDRhMZ7QRW08D-2" value="Persons" style="rounded=0;whiteSpace=wrap;html=1;" vertex="1" parent="1">
          <mxGeometry x="560" y="239.93" width="80" height="40" as="geometry" />
        </mxCell>
        <mxCell id="lydc4LzYDRhMZ7QRW08D-24" style="edgeStyle=orthogonalEdgeStyle;rounded=0;orthogonalLoop=1;jettySize=auto;html=1;entryX=0.5;entryY=1;entryDx=0;entryDy=0;endArrow=none;endFill=0;exitX=1;exitY=0.5;exitDx=0;exitDy=0;" edge="1" parent="1" source="lydc4LzYDRhMZ7QRW08D-3" target="lydc4LzYDRhMZ7QRW08D-1">
          <mxGeometry relative="1" as="geometry">
            <Array as="points">
              <mxPoint x="600" y="120" />
              <mxPoint x="440" y="120" />
            </Array>
          </mxGeometry>
        </mxCell>
        <mxCell id="lydc4LzYDRhMZ7QRW08D-3" value="isA" style="triangle;whiteSpace=wrap;html=1;direction=north;" vertex="1" parent="1">
          <mxGeometry x="580" y="160" width="40" height="30" as="geometry" />
        </mxCell>
        <mxCell id="MABTBO3klMH7pJVQwGnV-33" style="edgeStyle=none;curved=1;rounded=0;orthogonalLoop=1;jettySize=auto;html=1;entryX=1;entryY=0.5;entryDx=0;entryDy=0;fontSize=12;startSize=8;endSize=8;endArrow=none;endFill=0;" edge="1" parent="1" source="lydc4LzYDRhMZ7QRW08D-11" target="MABTBO3klMH7pJVQwGnV-29">
          <mxGeometry relative="1" as="geometry" />
        </mxCell>
        <mxCell id="fVZXy8tLX4e8cF8Ec6CE-1" style="edgeStyle=orthogonalEdgeStyle;rounded=0;orthogonalLoop=1;jettySize=auto;html=1;entryX=0;entryY=0.5;entryDx=0;entryDy=0;endArrow=none;endFill=0;" edge="1" parent="1" source="lydc4LzYDRhMZ7QRW08D-11" target="GIzlLRXuXj8KtMYb0bmO-1">
          <mxGeometry relative="1" as="geometry" />
        </mxCell>
        <mxCell id="lydc4LzYDRhMZ7QRW08D-11" value="Organizations" style="rounded=0;whiteSpace=wrap;html=1;" vertex="1" parent="1">
          <mxGeometry x="240" y="259.93" width="80" height="40" as="geometry" />
        </mxCell>
        <mxCell id="VWvjYX9mZCQNer7j0UDy-4" style="edgeStyle=orthogonalEdgeStyle;rounded=0;orthogonalLoop=1;jettySize=auto;html=1;entryX=0.5;entryY=1;entryDx=0;entryDy=0;endArrow=none;endFill=0;exitX=1;exitY=0.5;exitDx=0;exitDy=0;" edge="1" parent="1" source="lydc4LzYDRhMZ7QRW08D-12" target="lydc4LzYDRhMZ7QRW08D-1">
          <mxGeometry relative="1" as="geometry" />
        </mxCell>
        <mxCell id="lydc4LzYDRhMZ7QRW08D-12" value="isA" style="triangle;whiteSpace=wrap;html=1;direction=north;" vertex="1" parent="1">
          <mxGeometry x="260" y="160" width="40" height="30" as="geometry" />
        </mxCell>
        <mxCell id="lydc4LzYDRhMZ7QRW08D-16" style="edgeStyle=orthogonalEdgeStyle;rounded=0;orthogonalLoop=1;jettySize=auto;html=1;endArrow=none;endFill=0;exitX=0.5;exitY=0;exitDx=0;exitDy=0;" edge="1" parent="1" source="lydc4LzYDRhMZ7QRW08D-15">
          <mxGeometry relative="1" as="geometry">
            <mxPoint x="320" y="279.93" as="targetPoint" />
            <Array as="points">
              <mxPoint x="350" y="279.93" />
            </Array>
            <mxPoint x="355" y="329.93" as="sourcePoint" />
          </mxGeometry>
        </mxCell>
        <mxCell id="lydc4LzYDRhMZ7QRW08D-15" value="hire" style="rhombus;whiteSpace=wrap;html=1;" vertex="1" parent="1">
          <mxGeometry x="325" y="329.93" width="50" height="50" as="geometry" />
        </mxCell>
        <mxCell id="lydc4LzYDRhMZ7QRW08D-18" style="edgeStyle=orthogonalEdgeStyle;rounded=0;orthogonalLoop=1;jettySize=auto;html=1;entryX=0.5;entryY=1;entryDx=0;entryDy=0;endArrow=none;endFill=0;" edge="1" parent="1" source="lydc4LzYDRhMZ7QRW08D-17" target="lydc4LzYDRhMZ7QRW08D-15">
          <mxGeometry relative="1" as="geometry">
            <mxPoint x="355" y="379.93" as="targetPoint" />
          </mxGeometry>
        </mxCell>
        <mxCell id="lydc4LzYDRhMZ7QRW08D-17" value="Lobbying Firms" style="rounded=0;whiteSpace=wrap;html=1;" vertex="1" parent="1">
          <mxGeometry x="240" y="389.93" width="80" height="40" as="geometry" />
        </mxCell>
        <mxCell id="lydc4LzYDRhMZ7QRW08D-23" value="" style="endArrow=none;html=1;rounded=0;entryX=0;entryY=0.5;entryDx=0;entryDy=0;exitX=0.5;exitY=0;exitDx=0;exitDy=0;" edge="1" parent="1" source="lydc4LzYDRhMZ7QRW08D-11" target="lydc4LzYDRhMZ7QRW08D-12">
          <mxGeometry width="50" height="50" relative="1" as="geometry">
            <mxPoint x="280" y="270" as="sourcePoint" />
            <mxPoint x="210" y="280" as="targetPoint" />
          </mxGeometry>
        </mxCell>
        <mxCell id="lydc4LzYDRhMZ7QRW08D-27" style="edgeStyle=orthogonalEdgeStyle;rounded=0;orthogonalLoop=1;jettySize=auto;html=1;entryX=1;entryY=0.5;entryDx=0;entryDy=0;endArrow=none;endFill=0;" edge="1" parent="1" source="lydc4LzYDRhMZ7QRW08D-26" target="lydc4LzYDRhMZ7QRW08D-1">
          <mxGeometry relative="1" as="geometry" />
        </mxCell>
        <mxCell id="lydc4LzYDRhMZ7QRW08D-26" value="FilerId" style="ellipse;whiteSpace=wrap;html=1;" vertex="1" parent="1">
          <mxGeometry x="510" y="45" width="50" height="30" as="geometry" />
        </mxCell>
        <mxCell id="lydc4LzYDRhMZ7QRW08D-45" style="edgeStyle=orthogonalEdgeStyle;rounded=0;orthogonalLoop=1;jettySize=auto;html=1;entryX=0;entryY=0.5;entryDx=0;entryDy=0;endArrow=none;endFill=0;" edge="1" parent="1" source="lydc4LzYDRhMZ7QRW08D-40" target="lydc4LzYDRhMZ7QRW08D-43">
          <mxGeometry relative="1" as="geometry" />
        </mxCell>
        <mxCell id="lydc4LzYDRhMZ7QRW08D-40" value="Lobbyists" style="rounded=0;whiteSpace=wrap;html=1;" vertex="1" parent="1">
          <mxGeometry x="560" y="389.93" width="80" height="40" as="geometry" />
        </mxCell>
        <mxCell id="VWvjYX9mZCQNer7j0UDy-3" style="edgeStyle=orthogonalEdgeStyle;rounded=0;orthogonalLoop=1;jettySize=auto;html=1;entryX=0.5;entryY=1;entryDx=0;entryDy=0;endArrow=none;endFill=0;" edge="1" parent="1" source="lydc4LzYDRhMZ7QRW08D-43" target="lydc4LzYDRhMZ7QRW08D-2">
          <mxGeometry relative="1" as="geometry" />
        </mxCell>
        <mxCell id="lydc4LzYDRhMZ7QRW08D-43" value="isA" style="triangle;whiteSpace=wrap;html=1;direction=north;" vertex="1" parent="1">
          <mxGeometry x="580" y="329.93" width="40" height="30" as="geometry" />
        </mxCell>
        <mxCell id="lydc4LzYDRhMZ7QRW08D-61" style="edgeStyle=orthogonalEdgeStyle;rounded=0;orthogonalLoop=1;jettySize=auto;html=1;entryX=0;entryY=0.5;entryDx=0;entryDy=0;endArrow=none;endFill=0;" edge="1" parent="1" source="lydc4LzYDRhMZ7QRW08D-60" target="lydc4LzYDRhMZ7QRW08D-40">
          <mxGeometry relative="1" as="geometry" />
        </mxCell>
        <mxCell id="lydc4LzYDRhMZ7QRW08D-60" value="hire" style="rhombus;whiteSpace=wrap;html=1;" vertex="1" parent="1">
          <mxGeometry x="450" y="384.93" width="50" height="50" as="geometry" />
        </mxCell>
        <mxCell id="lydc4LzYDRhMZ7QRW08D-65" style="edgeStyle=orthogonalEdgeStyle;rounded=0;orthogonalLoop=1;jettySize=auto;html=1;entryX=0;entryY=0.5;entryDx=0;entryDy=0;endArrow=none;endFill=0;" edge="1" parent="1" source="lydc4LzYDRhMZ7QRW08D-63" target="lydc4LzYDRhMZ7QRW08D-64">
          <mxGeometry relative="1" as="geometry" />
        </mxCell>
        <mxCell id="lydc4LzYDRhMZ7QRW08D-66" style="edgeStyle=orthogonalEdgeStyle;rounded=0;orthogonalLoop=1;jettySize=auto;html=1;endArrow=none;endFill=0;exitX=0.5;exitY=0;exitDx=0;exitDy=0;" edge="1" parent="1" source="lydc4LzYDRhMZ7QRW08D-63">
          <mxGeometry relative="1" as="geometry">
            <mxPoint x="290" y="441" as="targetPoint" />
            <Array as="points">
              <mxPoint x="290" y="460" />
              <mxPoint x="290" y="460" />
            </Array>
          </mxGeometry>
        </mxCell>
        <mxCell id="lydc4LzYDRhMZ7QRW08D-63" value="influence" style="rhombus;whiteSpace=wrap;html=1;" vertex="1" parent="1">
          <mxGeometry x="255" y="465" width="70" height="70" as="geometry" />
        </mxCell>
        <mxCell id="lydc4LzYDRhMZ7QRW08D-64" value="Bills" style="rounded=0;whiteSpace=wrap;html=1;" vertex="1" parent="1">
          <mxGeometry x="360" y="480" width="80" height="40" as="geometry" />
        </mxCell>
        <mxCell id="lydc4LzYDRhMZ7QRW08D-82" style="edgeStyle=orthogonalEdgeStyle;rounded=0;orthogonalLoop=1;jettySize=auto;html=1;entryX=1;entryY=0.5;entryDx=0;entryDy=0;endArrow=none;endFill=0;" edge="1" parent="1" source="lydc4LzYDRhMZ7QRW08D-81" target="lydc4LzYDRhMZ7QRW08D-2">
          <mxGeometry relative="1" as="geometry" />
        </mxCell>
        <mxCell id="lydc4LzYDRhMZ7QRW08D-81" value="PId" style="ellipse;whiteSpace=wrap;html=1;" vertex="1" parent="1">
          <mxGeometry x="670" y="244.93" width="50" height="30" as="geometry" />
        </mxCell>
        <mxCell id="lydc4LzYDRhMZ7QRW08D-84" style="edgeStyle=orthogonalEdgeStyle;rounded=0;orthogonalLoop=1;jettySize=auto;html=1;endArrow=none;endFill=0;" edge="1" parent="1" source="lydc4LzYDRhMZ7QRW08D-83" target="lydc4LzYDRhMZ7QRW08D-64">
          <mxGeometry relative="1" as="geometry" />
        </mxCell>
        <mxCell id="lydc4LzYDRhMZ7QRW08D-83" value="BillId" style="ellipse;whiteSpace=wrap;html=1;" vertex="1" parent="1">
          <mxGeometry x="460" y="485" width="50" height="30" as="geometry" />
        </mxCell>
        <mxCell id="MABTBO3klMH7pJVQwGnV-32" style="edgeStyle=none;curved=1;rounded=0;orthogonalLoop=1;jettySize=auto;html=1;entryX=0.5;entryY=0;entryDx=0;entryDy=0;fontSize=12;startSize=8;endSize=8;endArrow=none;endFill=0;" edge="1" parent="1" source="MABTBO3klMH7pJVQwGnV-29" target="lydc4LzYDRhMZ7QRW08D-17">
          <mxGeometry relative="1" as="geometry" />
        </mxCell>
        <mxCell id="MABTBO3klMH7pJVQwGnV-29" value="isA" style="triangle;whiteSpace=wrap;html=1;direction=north;" vertex="1" parent="1">
          <mxGeometry x="260" y="329.93" width="40" height="30" as="geometry" />
        </mxCell>
        <mxCell id="oukhW7Wxim-JSfRWXSc4-1" value="" style="endArrow=none;dashed=1;html=1;dashPattern=1 3;strokeWidth=2;rounded=0;" edge="1" parent="1">
          <mxGeometry width="50" height="50" relative="1" as="geometry">
            <mxPoint x="220" y="239.93" as="sourcePoint" />
            <mxPoint x="380" y="239.93" as="targetPoint" />
          </mxGeometry>
        </mxCell>
        <mxCell id="oukhW7Wxim-JSfRWXSc4-2" value="" style="endArrow=none;dashed=1;html=1;dashPattern=1 3;strokeWidth=2;rounded=0;" edge="1" parent="1">
          <mxGeometry width="50" height="50" relative="1" as="geometry">
            <mxPoint x="220" y="440" as="sourcePoint" />
            <mxPoint x="380" y="440" as="targetPoint" />
          </mxGeometry>
        </mxCell>
        <mxCell id="oukhW7Wxim-JSfRWXSc4-3" value="" style="endArrow=none;dashed=1;html=1;dashPattern=1 3;strokeWidth=2;rounded=0;" edge="1" parent="1">
          <mxGeometry width="50" height="50" relative="1" as="geometry">
            <mxPoint x="380" y="239.93" as="sourcePoint" />
            <mxPoint x="380" y="439.93" as="targetPoint" />
          </mxGeometry>
        </mxCell>
        <mxCell id="oukhW7Wxim-JSfRWXSc4-4" value="" style="endArrow=none;dashed=1;html=1;dashPattern=1 3;strokeWidth=2;rounded=0;" edge="1" parent="1">
          <mxGeometry width="50" height="50" relative="1" as="geometry">
            <mxPoint x="220" y="239.93" as="sourcePoint" />
            <mxPoint x="220" y="439.93" as="targetPoint" />
          </mxGeometry>
        </mxCell>
        <mxCell id="oukhW7Wxim-JSfRWXSc4-7" style="edgeStyle=orthogonalEdgeStyle;rounded=0;orthogonalLoop=1;jettySize=auto;html=1;entryX=0;entryY=0.5;entryDx=0;entryDy=0;endArrow=none;endFill=0;exitX=1;exitY=0.5;exitDx=0;exitDy=0;" edge="1" parent="1" source="lydc4LzYDRhMZ7QRW08D-17" target="lydc4LzYDRhMZ7QRW08D-60">
          <mxGeometry relative="1" as="geometry">
            <mxPoint x="380" y="410" as="sourcePoint" />
            <mxPoint x="300" y="470" as="targetPoint" />
          </mxGeometry>
        </mxCell>
        <mxCell id="GIzlLRXuXj8KtMYb0bmO-2" style="edgeStyle=orthogonalEdgeStyle;rounded=0;orthogonalLoop=1;jettySize=auto;html=1;endArrow=none;endFill=0;" edge="1" parent="1" source="GIzlLRXuXj8KtMYb0bmO-1">
          <mxGeometry relative="1" as="geometry">
            <mxPoint x="560" y="400" as="targetPoint" />
            <Array as="points">
              <mxPoint x="530" y="280" />
              <mxPoint x="530" y="400" />
              <mxPoint x="560" y="400" />
            </Array>
          </mxGeometry>
        </mxCell>
        <mxCell id="GIzlLRXuXj8KtMYb0bmO-1" value="hire" style="rhombus;whiteSpace=wrap;html=1;" vertex="1" parent="1">
          <mxGeometry x="450" y="254.93" width="50" height="50" as="geometry" />
        </mxCell>
      </root>
    </mxGraphModel>
  </diagram>
</mxfile>
